G04 DipTrace 4.2.0.1*
G04 uart_sw_Top.gbr*
%MOIN*%
G04 #@! TF.FileFunction,Copper,L1,Top*
G04 #@! TF.Part,Single*
%AMOUTLINE0*
4,1,28,
-0.00689,0.033268,
0.00689,0.033268,
0.008622,0.03304,
0.010236,0.032371,
0.011622,0.031307,
0.012686,0.029921,
0.013355,0.028307,
0.013583,0.026575,
0.013583,-0.026575,
0.013355,-0.028307,
0.012686,-0.029921,
0.011622,-0.031307,
0.010236,-0.032371,
0.008622,-0.03304,
0.00689,-0.033268,
-0.00689,-0.033268,
-0.008622,-0.03304,
-0.010236,-0.032371,
-0.011622,-0.031307,
-0.012686,-0.029921,
-0.013355,-0.028307,
-0.013583,-0.026575,
-0.013583,0.026575,
-0.013355,0.028307,
-0.012686,0.029921,
-0.011622,0.031307,
-0.010236,0.032371,
-0.008622,0.03304,
-0.00689,0.033268,
0*%
%AMOUTLINE3*
4,1,28,
0.00689,-0.033268,
-0.00689,-0.033268,
-0.008622,-0.03304,
-0.010236,-0.032371,
-0.011622,-0.031307,
-0.012686,-0.029921,
-0.013355,-0.028307,
-0.013583,-0.026575,
-0.013583,0.026575,
-0.013355,0.028307,
-0.012686,0.029921,
-0.011622,0.031307,
-0.010236,0.032371,
-0.008622,0.03304,
-0.00689,0.033268,
0.00689,0.033268,
0.008622,0.03304,
0.010236,0.032371,
0.011622,0.031307,
0.012686,0.029921,
0.013355,0.028307,
0.013583,0.026575,
0.013583,-0.026575,
0.013355,-0.028307,
0.012686,-0.029921,
0.011622,-0.031307,
0.010236,-0.032371,
0.008622,-0.03304,
0.00689,-0.033268,
0*%
%ADD25C,0.019121*%
%ADD26C,0.01*%
G04 #@! TA.AperFunction,Conductor*
%ADD13C,0.02*%
G04 #@! TA.AperFunction,CopperBalancing*
%ADD14C,0.025*%
%ADD15C,0.013*%
G04 #@! TA.AperFunction,ComponentPad*
%ADD16R,0.059055X0.059055*%
%ADD17R,0.062992X0.070866*%
%ADD18R,0.070866X0.062992*%
G04 #@! TA.AperFunction,ComponentPad*
%ADD19C,0.059055*%
%ADD20R,0.066929X0.066929*%
%ADD21C,0.066929*%
%ADD22R,0.062992X0.055118*%
G04 #@! TA.AperFunction,ViaPad*
%ADD24C,0.04*%
%ADD44OUTLINE0*%
%ADD47OUTLINE3*%
%FSLAX26Y26*%
G04*
G70*
G90*
G75*
G01*
G04 Top*
%LPD*%
X1698720Y1582283D2*
D13*
X2013681D1*
X1698720D2*
X1856201D1*
Y1731201D1*
X1876083D1*
Y1856201D1*
Y1926083D1*
X2268701Y2318701D1*
X2468701D1*
X2506201Y2356201D1*
Y2431201D1*
X2756201Y1179331D2*
Y1081201D1*
X2765041Y1072361D1*
X2806201Y1031201D1*
Y958071D1*
X2765041Y1072361D2*
X2590041D1*
X2406201Y1256201D1*
X2206201D1*
Y1181201D1*
X2238583D1*
X2206201D2*
Y1793701D1*
X2156201Y1843701D1*
Y2106201D1*
X2306201Y2256201D1*
X2506201D1*
X2606201Y2356201D1*
Y2431201D1*
X2756201Y2066831D2*
Y1981591D1*
Y1943701D1*
X2806201Y1893701D1*
Y1845571D1*
X2756201Y1981591D2*
X2405811D1*
X2368701Y2018701D1*
Y2043701D1*
X2348819D1*
X2756201Y2066831D2*
Y1981201D1*
X2406201D1*
X2368701Y2018701D1*
Y2068701D1*
X2431201Y2131201D1*
X2481201D1*
X2706201Y2356201D1*
Y2431201D1*
X2006201Y531201D2*
X2106201D1*
X1986319Y1731201D2*
Y1856201D1*
X2106201Y531201D2*
D3*
X3243701Y1606201D2*
X3343701D1*
X2106201Y531201D2*
Y618701D1*
X2143701D1*
X2238583D1*
X3031201D1*
X3468701D1*
Y1481201D1*
X3343701Y1606201D1*
X2856201Y1845571D2*
Y1831201D1*
X2931201Y1756201D1*
Y1473627D1*
X2888774Y1431201D1*
X2656201D1*
X2648819D1*
X2656201Y1423819D1*
X2856201Y958071D2*
Y931201D1*
X3031201D1*
Y731201D2*
Y618701D1*
X2238583Y1006201D2*
Y618701D1*
X2348819Y1893701D2*
Y1906201D1*
X2518701D1*
X2656201Y1768701D1*
Y1431201D1*
X2873819Y2218701D2*
X3343701D1*
Y1606201D1*
X2143701Y618701D2*
Y1731201D1*
X2093701D1*
X1986319D1*
X2256201D2*
Y1801083D1*
X2348819Y1893701D1*
X3243701Y1506201D2*
X3293701Y1456201D1*
X3381201D1*
X3431201Y1406201D1*
Y981201D1*
X3281201Y831201D1*
X2718701D1*
X2656201Y893701D1*
Y1006201D1*
X2681201Y1031201D1*
X2731201D1*
X2756201Y1006201D1*
Y958071D1*
X3243701Y1506201D2*
X3068701D1*
X2881201D2*
Y1681201D1*
X2756201Y1806201D1*
Y1845571D1*
X3343701Y1306201D2*
X3293701Y1356201D1*
X2974950D1*
X2931201D1*
X2806201Y1231201D1*
Y1179331D1*
Y2066831D2*
Y2006201D1*
X2974950Y1837451D1*
Y1356201D1*
X2348819Y1006201D2*
Y1181201D1*
X2238583Y2043701D2*
Y1893701D1*
X1906201Y531201D2*
Y651083D1*
X1956201Y701083D1*
X1806201Y531201D2*
Y651083D1*
X1756201Y701083D1*
X3243701Y1406201D2*
X3206201Y1443701D1*
X3056201D1*
X3018701Y1481201D1*
Y1943701D1*
X2908071Y2054331D1*
X2868701D1*
X2856201Y2066831D1*
X3243699Y1943701D2*
X3018701D1*
X3343701Y1506201D2*
X3331201D1*
X3281201Y1556201D1*
X3118701D1*
X3068701Y1606201D1*
X2818701D2*
Y1681201D1*
X2706201Y1793701D1*
Y1845571D1*
X3068701Y1606201D2*
Y1668699D1*
X3243702Y1843701D1*
X2856201Y1179331D2*
Y1206201D1*
X3243701D1*
Y1306201D1*
X3243699Y1031201D2*
X3243701Y1206201D1*
X3343701Y1406201D2*
X3393701Y1356201D1*
Y1006199D1*
X3256202Y868701D1*
X3243701D1*
X2756201D1*
X2706201Y918701D1*
Y958071D1*
X3243702Y931201D2*
X3243701Y868701D1*
X1756201Y811319D2*
Y806201D1*
X1981201D1*
Y811319D1*
X1956201D1*
X2013681Y1405118D2*
X1698720D1*
X2013681D2*
X1856201D1*
Y1331201D1*
Y811319D1*
X1956201D1*
X2706201Y2066831D2*
Y2161319D1*
X2763583Y2218701D1*
X2706201Y1179331D2*
Y1263583D1*
X2656201Y1313583D1*
X1856201Y1331201D2*
X2093701D1*
X2256201D2*
X2273819Y1313583D1*
X2509112D1*
X2656201D1*
X2509112D2*
Y1828290D1*
Y2043701D2*
X2706201D1*
Y2066831D1*
D24*
X3031201Y931201D3*
Y731201D3*
X2256201Y1731201D3*
X2093701D3*
X3068701Y1506201D3*
X2881201D3*
X3068701Y1606201D3*
X2818701D3*
X2093701Y1331201D3*
X2256201D3*
X2509112Y1828290D3*
Y2043701D3*
X434710Y2480332D2*
D14*
X1086247D1*
X2102158D2*
X2148239D1*
X2964168D2*
X3502706D1*
X434710Y2455463D2*
X1086247D1*
X2102158D2*
X2148239D1*
X2964168D2*
X3502706D1*
X434710Y2430594D2*
X1086247D1*
X2102158D2*
X2148239D1*
X2964168D2*
X3502706D1*
X434710Y2405726D2*
X1086247D1*
X2102158D2*
X2148239D1*
X2964168D2*
X3502706D1*
X434710Y2380857D2*
X1086247D1*
X2102158D2*
X2148239D1*
X2964168D2*
X3502706D1*
X434710Y2355988D2*
X2452663D1*
X2544628D2*
X2552672D1*
X2644637D2*
X2652663D1*
X2744629D2*
X3502706D1*
X434710Y2331119D2*
X2227795D1*
X2734438D2*
X3502706D1*
X434710Y2306251D2*
X2202927D1*
X2709570D2*
X3502706D1*
X434710Y2281382D2*
X2178059D1*
X2684702D2*
X3502706D1*
X434710Y2256513D2*
X2153191D1*
X2659834D2*
X2703655D1*
X2933756D2*
X3502706D1*
X434710Y2231644D2*
X2128324D1*
X2634967D2*
X2703655D1*
X2933756D2*
X3502706D1*
X434710Y2206776D2*
X2103456D1*
X2310089D2*
X2503457D1*
X2610099D2*
X2698344D1*
X2933756D2*
X3502706D1*
X434710Y2181907D2*
X2078588D1*
X2285221D2*
X2478589D1*
X2585231D2*
X2674248D1*
X2933756D2*
X3502706D1*
X434710Y2157038D2*
X2053720D1*
X2260354D2*
X2403735D1*
X2560363D2*
X2667771D1*
X2755232D2*
X3502706D1*
X434710Y2132169D2*
X2028853D1*
X2235486D2*
X2378849D1*
X2535496D2*
X2667771D1*
X2744629D2*
X3502706D1*
X434710Y2107301D2*
X2003985D1*
X2210618D2*
X2353981D1*
X2510610D2*
X2667286D1*
X2895109D2*
X3502706D1*
X434710Y2082432D2*
X1979117D1*
X2085741D2*
X2117774D1*
X2435756D2*
X2481926D1*
X2536303D2*
X2664182D1*
X2932967D2*
X3502706D1*
X434710Y2057563D2*
X1954249D1*
X2060873D2*
X2117774D1*
X2410888D2*
X2462818D1*
X2958158D2*
X3502706D1*
X434710Y2032694D2*
X1929382D1*
X2036006D2*
X2117774D1*
X2408753D2*
X2462011D1*
X2983025D2*
X3502706D1*
X434710Y2007825D2*
X1904514D1*
X2011138D2*
X2117774D1*
X2869165D2*
X2901251D1*
X3007893D2*
X3502706D1*
X434710Y1982957D2*
X1879646D1*
X1986270D2*
X2117774D1*
X2882765D2*
X2926119D1*
X3032761D2*
X3181794D1*
X3305588D2*
X3502706D1*
X434710Y1958088D2*
X1854778D1*
X1961402D2*
X2117774D1*
X2277022D2*
X2375996D1*
X2907633D2*
X2951004D1*
X3305588D2*
X3502706D1*
X434710Y1933219D2*
X1838361D1*
X1936535D2*
X2117774D1*
X2408753D2*
X2719336D1*
X2932500D2*
X2975872D1*
X3305588D2*
X3502706D1*
X434710Y1908350D2*
X1816149D1*
X2046251D2*
X2117774D1*
X2408753D2*
X2738229D1*
X2841516D2*
X2850726D1*
X2957368D2*
X2980268D1*
X3305588D2*
X3502706D1*
X434710Y1883482D2*
X1816149D1*
X2046251D2*
X2117774D1*
X2408753D2*
X2666210D1*
X3057126D2*
X3197098D1*
X3290319D2*
X3502706D1*
X434710Y1858613D2*
X1816149D1*
X2046251D2*
X2117774D1*
X2408753D2*
X2472112D1*
X2546117D2*
X2664182D1*
X3057126D2*
X3183713D1*
X3303704D2*
X3502706D1*
X434710Y1833744D2*
X1816149D1*
X2046251D2*
X2119173D1*
X2408753D2*
X2461006D1*
X2557223D2*
X2664182D1*
X2898213D2*
X2925347D1*
X3057126D2*
X3180430D1*
X3304763D2*
X3502706D1*
X434710Y1808875D2*
X1816149D1*
X2046251D2*
X2137707D1*
X2241281D2*
X2464989D1*
X2553240D2*
X2665797D1*
X2896616D2*
X2936525D1*
X3057126D2*
X3155562D1*
X3294321D2*
X3502706D1*
X434710Y1784007D2*
X1816149D1*
X2046251D2*
X2162575D1*
X2244636D2*
X2470677D1*
X2547553D2*
X2669098D1*
X2831720D2*
X2936525D1*
X3057126D2*
X3130695D1*
X3237319D2*
X3502706D1*
X434710Y1759138D2*
X1816149D1*
X2046251D2*
X2167760D1*
X2244636D2*
X2470677D1*
X2547553D2*
X2687453D1*
X2856587D2*
X2936525D1*
X3057126D2*
X3105827D1*
X3212451D2*
X3502706D1*
X434710Y1734269D2*
X1816149D1*
X2046251D2*
X2167760D1*
X2244636D2*
X2470677D1*
X2547553D2*
X2712321D1*
X2881455D2*
X2936525D1*
X3057126D2*
X3080959D1*
X3187583D2*
X3502706D1*
X434710Y1709400D2*
X1816149D1*
X2046251D2*
X2167760D1*
X2244636D2*
X2470677D1*
X2547553D2*
X2737189D1*
X2906323D2*
X2936525D1*
X3162715D2*
X3502706D1*
X434710Y1684531D2*
X1816149D1*
X2046251D2*
X2167760D1*
X2244636D2*
X2470677D1*
X2547553D2*
X2762056D1*
X2919474D2*
X2936525D1*
X3137848D2*
X3502706D1*
X434710Y1659663D2*
X1817764D1*
X1894640D2*
X2167760D1*
X2244636D2*
X2470677D1*
X2547553D2*
X2780268D1*
X2919636D2*
X2936525D1*
X3112980D2*
X3226451D1*
X3260948D2*
X3326443D1*
X3360958D2*
X3502706D1*
X434710Y1634794D2*
X1638792D1*
X1758657D2*
X1817764D1*
X1894640D2*
X1953747D1*
X2073612D2*
X2167760D1*
X2244636D2*
X2470677D1*
X2547553D2*
X2780250D1*
X2919636D2*
X2936525D1*
X3107149D2*
X3193671D1*
X3393720D2*
X3502706D1*
X434710Y1609925D2*
X1638792D1*
X2073612D2*
X2167760D1*
X2244636D2*
X2470677D1*
X2547553D2*
X2770417D1*
X2919636D2*
X2936525D1*
X3118291D2*
X3185866D1*
X3401543D2*
X3502706D1*
X434710Y1585056D2*
X1638792D1*
X2073612D2*
X2167760D1*
X2244636D2*
X2470677D1*
X2547553D2*
X2775423D1*
X2919636D2*
X2936525D1*
X3397470D2*
X3502706D1*
X434710Y1560188D2*
X1638792D1*
X2073612D2*
X2167760D1*
X2244636D2*
X2470677D1*
X2547553D2*
X2842760D1*
X2919636D2*
X2936525D1*
X3377159D2*
X3502706D1*
X434710Y1535319D2*
X1638792D1*
X1758657D2*
X1953747D1*
X2073612D2*
X2167760D1*
X2244636D2*
X2470677D1*
X2547553D2*
X2842760D1*
X2919636D2*
X2936525D1*
X3393397D2*
X3502706D1*
X434710Y1510450D2*
X2167760D1*
X2244636D2*
X2470677D1*
X2547553D2*
X2832963D1*
X3401507D2*
X3502706D1*
X434710Y1485581D2*
X2167760D1*
X2244636D2*
X2470677D1*
X2547553D2*
X2837664D1*
X2924749D2*
X2936525D1*
X3404395D2*
X3502706D1*
X434710Y1460713D2*
X2167760D1*
X2244636D2*
X2470677D1*
X2547553D2*
X2592342D1*
X2720066D2*
X2872328D1*
X2890085D2*
X2936525D1*
X3429999D2*
X3502706D1*
X434710Y1435844D2*
X1638792D1*
X2073612D2*
X2167760D1*
X2244636D2*
X2470677D1*
X2547553D2*
X2592342D1*
X2720066D2*
X2936525D1*
X3454866D2*
X3502706D1*
X434710Y1410975D2*
X1638792D1*
X2073612D2*
X2167760D1*
X2244636D2*
X2470677D1*
X2547553D2*
X2592342D1*
X2720066D2*
X2936525D1*
X3013383D2*
X3038867D1*
X3469310D2*
X3502706D1*
X434710Y1386106D2*
X1638792D1*
X2073612D2*
X2167760D1*
X2244636D2*
X2470677D1*
X2547553D2*
X2592342D1*
X2720066D2*
X2908787D1*
X3469633D2*
X3502706D1*
X434710Y1361238D2*
X1638792D1*
X1758657D2*
X1817764D1*
X2130955D2*
X2167760D1*
X2293457D2*
X2470677D1*
X2547553D2*
X2592342D1*
X2720066D2*
X2882914D1*
X3469633D2*
X3502706D1*
X434710Y1336369D2*
X1817764D1*
X2141846D2*
X2167760D1*
X2720066D2*
X2858046D1*
X3469633D2*
X3502706D1*
X434710Y1311500D2*
X1817764D1*
X2137701D2*
X2167760D1*
X2720066D2*
X2833179D1*
X2939821D2*
X3185741D1*
X3469633D2*
X3502706D1*
X434710Y1286631D2*
X1817764D1*
X1894640D2*
X2080095D1*
X2107308D2*
X2167760D1*
X2736268D2*
X2808311D1*
X2914953D2*
X3185741D1*
X3469633D2*
X3502706D1*
X434710Y1261762D2*
X1817764D1*
X1894640D2*
X2167760D1*
X2453949D2*
X2592342D1*
X2744629D2*
X2783443D1*
X2890085D2*
X3185741D1*
X3469633D2*
X3502706D1*
X434710Y1236894D2*
X1817764D1*
X1894640D2*
X2167760D1*
X2478817D2*
X2667771D1*
X3282138D2*
X3355276D1*
X3469633D2*
X3502706D1*
X434710Y1212025D2*
X1817764D1*
X1894640D2*
X2167760D1*
X2503702D2*
X2664756D1*
X3282138D2*
X3355276D1*
X3469633D2*
X3502706D1*
X434710Y1187156D2*
X1817764D1*
X1894640D2*
X2167760D1*
X2408753D2*
X2421928D1*
X2528570D2*
X2664182D1*
X3282138D2*
X3355276D1*
X3469633D2*
X3502706D1*
X434710Y1162287D2*
X1817764D1*
X1894640D2*
X2173143D1*
X2408753D2*
X2446796D1*
X2553438D2*
X2664182D1*
X2898213D2*
X3205262D1*
X3282138D2*
X3355276D1*
X3469633D2*
X3502706D1*
X434710Y1137419D2*
X1817764D1*
X1894640D2*
X2178651D1*
X2408753D2*
X2471663D1*
X2578305D2*
X2668022D1*
X2894391D2*
X3205262D1*
X3282138D2*
X3355276D1*
X3469633D2*
X3502706D1*
X434710Y1112550D2*
X1817764D1*
X1894640D2*
X2310382D1*
X2387258D2*
X2496531D1*
X2603173D2*
X2717775D1*
X2794633D2*
X3205262D1*
X3282138D2*
X3355276D1*
X3469633D2*
X3502706D1*
X434710Y1087681D2*
X1817764D1*
X1894640D2*
X2310382D1*
X2387258D2*
X2521399D1*
X2803030D2*
X3181794D1*
X3305606D2*
X3355276D1*
X3469633D2*
X3502706D1*
X434710Y1062812D2*
X1817764D1*
X1894640D2*
X2178651D1*
X2408753D2*
X2546267D1*
X2827898D2*
X3181794D1*
X3305606D2*
X3355276D1*
X3469633D2*
X3502706D1*
X434710Y1037944D2*
X1817764D1*
X1894640D2*
X2178651D1*
X2408753D2*
X2577217D1*
X2843992D2*
X3181794D1*
X3305606D2*
X3355276D1*
X3469633D2*
X3502706D1*
X434710Y1013075D2*
X1817764D1*
X1894640D2*
X2178651D1*
X2408753D2*
X2618430D1*
X2881599D2*
X3181794D1*
X3305606D2*
X3347256D1*
X3469633D2*
X3502706D1*
X434710Y988206D2*
X1817764D1*
X1894640D2*
X2178651D1*
X2408753D2*
X2617766D1*
X2898016D2*
X3181794D1*
X3305606D2*
X3322388D1*
X3469633D2*
X3502706D1*
X434710Y963337D2*
X1817764D1*
X1894640D2*
X2178651D1*
X2408753D2*
X2617766D1*
X2898213D2*
X3191249D1*
X3464878D2*
X3502706D1*
X434710Y938469D2*
X1817764D1*
X1894640D2*
X2617766D1*
X2898213D2*
X3182242D1*
X3441787D2*
X3502706D1*
X434710Y913600D2*
X1817764D1*
X1894640D2*
X2617766D1*
X2892866D2*
X3184467D1*
X3416919D2*
X3502706D1*
X434710Y888731D2*
X1817764D1*
X1894640D2*
X2618107D1*
X3392051D2*
X3502706D1*
X434710Y863862D2*
X1692331D1*
X2020073D2*
X2632730D1*
X3367183D2*
X3502706D1*
X434710Y838993D2*
X1692331D1*
X2020073D2*
X2657597D1*
X3342316D2*
X3502706D1*
X434710Y814125D2*
X1692331D1*
X2020073D2*
X2682465D1*
X3317448D2*
X3502706D1*
X434710Y789256D2*
X1692331D1*
X2020073D2*
X3502706D1*
X434710Y764387D2*
X1692331D1*
X1820073D2*
X1892331D1*
X2020073D2*
X3502706D1*
X434710Y739518D2*
X1692331D1*
X1820073D2*
X1892331D1*
X2020073D2*
X3502706D1*
X434710Y714650D2*
X1692331D1*
X1820073D2*
X1892331D1*
X2020073D2*
X3502706D1*
X434710Y689781D2*
X1692331D1*
X1820826D2*
X1891578D1*
X2020073D2*
X3502706D1*
X434710Y664912D2*
X1692331D1*
X1841872D2*
X1870532D1*
X2020073D2*
X3502706D1*
X434710Y640043D2*
X1763920D1*
X1844635D2*
X1867769D1*
X1948484D2*
X3502706D1*
X434710Y615175D2*
X1767759D1*
X1844635D2*
X1867769D1*
X1944627D2*
X3502706D1*
X434710Y590306D2*
X1767759D1*
X1844635D2*
X1867769D1*
X1944627D2*
X3502706D1*
X434710Y565437D2*
X1448247D1*
X2264157D2*
X2348240D1*
X2964168D2*
X3502706D1*
X434710Y540568D2*
X1448247D1*
X2264157D2*
X2348240D1*
X2964168D2*
X3502706D1*
X434710Y515699D2*
X1448247D1*
X2264157D2*
X2348240D1*
X2964168D2*
X3502706D1*
X434710Y490831D2*
X1448247D1*
X2264157D2*
X2348240D1*
X2964168D2*
X3502706D1*
X434710Y465962D2*
X3502706D1*
X434710Y441093D2*
X3502706D1*
X1820267Y1331140D2*
X1820269Y842134D1*
X1817567Y842131D1*
Y868748D1*
X1694835D1*
Y643653D1*
X1762813D1*
X1770267Y636194D1*
X1770270Y586662D1*
X1450740D1*
Y475740D1*
X2049413D1*
X2261662D1*
Y586662D1*
X1942134Y586657D1*
X1942139Y636203D1*
X1949594Y643653D1*
X2017567D1*
Y868748D1*
X1894835D1*
X1894840Y847252D1*
X1892134Y847247D1*
X1892128Y1295267D1*
X2065188Y1295270D1*
X2065683Y1294802D1*
X2073583Y1289907D1*
X2082307Y1286703D1*
X2091498Y1285320D1*
X2100778Y1285816D1*
X2109769Y1288170D1*
X2118103Y1292285D1*
X2125437Y1297994D1*
X2131472Y1305062D1*
X2135960Y1313200D1*
X2138719Y1322076D1*
X2139634Y1331324D1*
X2138669Y1340568D1*
X2135863Y1349428D1*
X2131330Y1357542D1*
X2125258Y1364578D1*
X2117893Y1370247D1*
X2109538Y1374318D1*
X2100534Y1376623D1*
X2091251Y1377069D1*
X2082068Y1375637D1*
X2073361Y1372385D1*
X2071111Y1371187D1*
Y1458610D1*
X1956252D1*
X1956248Y1441052D1*
X1756150Y1441054D1*
Y1458610D1*
X1641291D1*
Y1351625D1*
X1756150D1*
X1756144Y1369185D1*
X1820267Y1369193D1*
Y1331264D1*
X2859926Y586662D2*
X2961662D1*
Y475740D1*
X2350740D1*
Y586662D1*
X2859926D1*
X1997926Y2486661D2*
X2099662D1*
Y2375740D1*
X1088740D1*
Y2486662D1*
X1997926Y2486661D1*
X2670274Y2375740D2*
X2642132D1*
X2642134Y2356201D1*
X2640966Y2347114D1*
X2637538Y2338617D1*
X2637427Y2338244D1*
X2670267Y2371085D1*
Y2375740D1*
X2570274D2*
X2542132D1*
X2542134Y2356201D1*
X2540966Y2347114D1*
X2537538Y2338617D1*
X2539008Y2339825D1*
X2570262Y2371080D1*
X2570267Y2375740D1*
X2296012Y1982337D2*
X2274509Y1982334D1*
X2274516Y1955067D1*
X2300576D1*
X2381540D1*
X2380402Y1956182D1*
X2354254Y1982330D1*
X2296021Y1982334D1*
X2506174Y2220267D2*
X2321090Y2220273D1*
X2205887Y2105067D1*
X2354250D1*
X2405779Y2156597D1*
X2411355Y2161157D1*
X2419576Y2165202D1*
X2428551Y2167036D1*
X2431201Y2167134D1*
X2466313D1*
X2524366Y2225198D1*
X2522750Y2224305D1*
X2521098Y2223501D1*
X2519408Y2222782D1*
X2517682Y2222151D1*
X2515927Y2221609D1*
X2514138Y2221156D1*
X2506174Y2220267D1*
X3299162Y1273144D2*
Y1250740D1*
X3279632D1*
X3279633Y1090596D1*
X3303098Y1090599D1*
Y971803D1*
X3287049D1*
X3292333Y965305D1*
X3295923Y959247D1*
X3357766Y1021082D1*
X3357767Y1252560D1*
X3357300Y1252433D1*
X3348265Y1250928D1*
X3339105Y1250931D1*
X3330070Y1252441D1*
X3321408Y1255418D1*
X3313353Y1259780D1*
X3306126Y1265408D1*
X3299924Y1272149D1*
X3299166Y1273310D1*
X2975009Y1320267D2*
X3188240Y1320274D1*
Y1250740D1*
X3207767Y1250737D1*
X3207771Y1242134D1*
X2867951D1*
X2946083Y1320267D1*
X2974900D1*
X3190246Y1392136D2*
X3188994Y1397088D1*
X3188240Y1406217D1*
X3188368Y1407759D1*
X3141708Y1407767D1*
X3056201D1*
X3047114Y1408935D1*
X3038618Y1412363D1*
X3031260Y1417834D1*
X3010885Y1438200D1*
X3010884Y1392141D1*
X3084854Y1392134D1*
X3190058D1*
X3200352Y1884303D2*
X3184301D1*
Y1907762D1*
X3054625Y1907767D1*
X3054634Y1870146D1*
Y1705447D1*
X3184855Y1835671D1*
X3184472Y1839238D1*
X3184485Y1848331D1*
X3185886Y1857316D1*
X3188642Y1865983D1*
X3192689Y1874126D1*
X3197931Y1881557D1*
X3200577Y1884298D1*
X1956252Y1367134D2*
Y1369183D1*
X1892139Y1369185D1*
X1892134Y1367126D1*
X1938826Y1367134D1*
X1956257D1*
X2836594Y1122712D2*
X2845460Y1120359D1*
X2849331Y1120130D1*
X2863057D1*
X2868385Y1120562D1*
X2877121Y1123301D1*
X2884753Y1128359D1*
X2890679Y1135339D1*
X2894432Y1143690D1*
X2895717Y1152756D1*
X2895719Y1170267D1*
X3207767Y1170273D1*
X3207761Y1090599D1*
X3184302D1*
Y971803D1*
X3200576Y971798D1*
X3197930Y969057D1*
X3192688Y961626D1*
X3188641Y953482D1*
X3185885Y944816D1*
X3184485Y935831D1*
X3184472Y926737D1*
X3185847Y917748D1*
X3188579Y909075D1*
X3190767Y904639D1*
X3013260Y904634D1*
X2884651D1*
X2881715Y904708D1*
X2884144Y906571D1*
X2886387Y908654D1*
X2888425Y910938D1*
X2890240Y913402D1*
X2891816Y916026D1*
X2893140Y918787D1*
X2894199Y921659D1*
X2894984Y924617D1*
X2895488Y927636D1*
X2895707Y930693D1*
X2895717Y938823D1*
Y984646D1*
X2895581Y987622D1*
X2895159Y990653D1*
X2894455Y993632D1*
X2893475Y996532D1*
X2892227Y999327D1*
X2890723Y1001993D1*
X2888976Y1004506D1*
X2887000Y1006845D1*
X2884815Y1008988D1*
X2882438Y1010917D1*
X2879891Y1012614D1*
X2877196Y1014066D1*
X2874376Y1015258D1*
X2871458Y1016181D1*
X2868466Y1016826D1*
X2865423Y1017188D1*
X2863069Y1017272D1*
X2849348D1*
X2847057Y1017194D1*
X2844014Y1016839D1*
X2842134Y1016471D1*
Y1031201D1*
X2841579Y1037494D1*
X2838837Y1046236D1*
X2833968Y1054006D1*
X2831593Y1056625D1*
X2792134Y1096092D1*
Y1120924D1*
X2799331Y1120130D1*
X2813057D1*
X2818385Y1120562D1*
X2827129Y1123306D1*
X2836594Y1122712D1*
X2725808Y1902190D2*
X2716941Y1904543D1*
X2713070Y1904772D1*
X2699345D1*
X2694017Y1904340D1*
X2685280Y1901601D1*
X2677648Y1896542D1*
X2671723Y1889563D1*
X2667969Y1881211D1*
X2666685Y1872146D1*
Y1818996D1*
X2667427Y1812080D1*
X2670267Y1804131D1*
Y1793701D1*
X2670365Y1791051D1*
X2672200Y1782075D1*
X2676251Y1773849D1*
X2680808Y1768276D1*
X2782767Y1666325D1*
X2782771Y1634586D1*
X2778479Y1628384D1*
X2774837Y1619834D1*
X2772991Y1610725D1*
X2773016Y1601431D1*
X2774911Y1592332D1*
X2778599Y1583801D1*
X2783929Y1576187D1*
X2790683Y1569802D1*
X2798583Y1564907D1*
X2807307Y1561703D1*
X2816498Y1560320D1*
X2825778Y1560816D1*
X2834769Y1563170D1*
X2843103Y1567285D1*
X2845267Y1568732D1*
X2845271Y1534586D1*
X2840979Y1528384D1*
X2837337Y1519834D1*
X2835491Y1510725D1*
X2835516Y1501431D1*
X2837411Y1492332D1*
X2841099Y1483801D1*
X2846429Y1476187D1*
X2853183Y1469802D1*
X2861083Y1464907D1*
X2869807Y1461703D1*
X2878998Y1460320D1*
X2888278Y1460816D1*
X2897269Y1463170D1*
X2905603Y1467285D1*
X2912937Y1472994D1*
X2918972Y1480062D1*
X2923460Y1488200D1*
X2926219Y1497076D1*
X2927134Y1506324D1*
X2926169Y1515568D1*
X2923363Y1524428D1*
X2918830Y1532542D1*
X2917134Y1534808D1*
X2917128Y1681864D1*
X2915793Y1690927D1*
X2912209Y1699358D1*
X2906610Y1706610D1*
X2826834Y1786385D1*
X2826953Y1789463D1*
X2831217Y1791847D1*
X2833841Y1790270D1*
X2836601Y1788947D1*
X2839473Y1787888D1*
X2842432Y1787103D1*
X2845451Y1786599D1*
X2848507Y1786380D1*
X2856584Y1786370D1*
X2863091D1*
X2864539Y1786402D1*
X2867587Y1786681D1*
X2870596Y1787245D1*
X2873538Y1788088D1*
X2876389Y1789203D1*
X2879122Y1790580D1*
X2881715Y1792208D1*
X2884143Y1794071D1*
X2886387Y1796154D1*
X2888425Y1798438D1*
X2890240Y1800902D1*
X2891816Y1803526D1*
X2893139Y1806286D1*
X2894198Y1809158D1*
X2894983Y1812117D1*
X2895488Y1815136D1*
X2895707Y1818192D1*
X2895717Y1826323D1*
X2895722Y1865862D1*
X2939017Y1822575D1*
X2939022Y1392134D1*
X2930538Y1392128D1*
X2921474Y1390793D1*
X2913043Y1387209D1*
X2905792Y1381610D1*
X2780328Y1256136D1*
X2774863Y1248783D1*
X2771435Y1240287D1*
X2770558Y1237665D1*
X2763070Y1238532D1*
X2749311D1*
X2744209Y1238130D1*
X2742134Y1237727D1*
X2742128Y1264246D1*
X2740793Y1273309D1*
X2737209Y1281740D1*
X2731610Y1288991D1*
X2717567Y1303038D1*
Y1481248D1*
X2594835D1*
X2594837Y1349516D1*
X2545045Y1349509D1*
X2545050Y1800005D1*
X2546882Y1802151D1*
X2551371Y1810290D1*
X2554129Y1819165D1*
X2555045Y1828414D1*
X2554080Y1837657D1*
X2551273Y1846518D1*
X2546741Y1854632D1*
X2540668Y1861667D1*
X2533304Y1867336D1*
X2524948Y1871407D1*
X2515945Y1873712D1*
X2506662Y1874158D1*
X2497479Y1872726D1*
X2488772Y1869475D1*
X2480898Y1864537D1*
X2474179Y1858116D1*
X2468890Y1850473D1*
X2465248Y1841923D1*
X2463402Y1832814D1*
X2463427Y1823520D1*
X2465322Y1814421D1*
X2469010Y1805891D1*
X2473178Y1799684D1*
X2473171Y1349516D1*
X2298314D1*
X2293830Y1357542D1*
X2287758Y1364578D1*
X2280393Y1370247D1*
X2272038Y1374318D1*
X2263034Y1376623D1*
X2253751Y1377069D1*
X2244568Y1375637D1*
X2242134Y1374923D1*
X2242128Y1794364D1*
X2240793Y1803427D1*
X2237209Y1811859D1*
X2231610Y1819110D1*
X2218386Y1832334D1*
X2406248D1*
X2406249Y1945267D1*
X2720267Y1945272D1*
X2720273Y1943038D1*
X2721609Y1933974D1*
X2725193Y1925543D1*
X2730792Y1918292D1*
X2742063Y1907021D1*
X2744017Y1904340D1*
X2735273Y1901596D1*
X2725808Y1902190D1*
X2841020Y1903701D2*
X2844017Y1904340D1*
X2847060Y1904694D1*
X2849348Y1904772D1*
X2856814D1*
X2792133Y1969451D1*
X2792134Y1958581D1*
X2831596Y1919124D1*
X2833975Y1916501D1*
X2838840Y1908728D1*
X2841020Y1903701D1*
X2863057Y2007630D2*
X2855589D1*
X2982763Y1880456D1*
X2982767Y1928821D1*
X2893193Y2018392D1*
X2887311Y2018397D1*
X2884753Y2015859D1*
X2877121Y2010801D1*
X2868376Y2008062D1*
X2863057Y2007630D1*
X2691844Y1120997D2*
X2683305Y1124325D1*
X2676036Y1129892D1*
X2670599Y1137260D1*
X2667424Y1145848D1*
X2666685Y1152756D1*
Y1205883D1*
X2666914Y1209765D1*
X2669266Y1218623D1*
X2670267Y1224501D1*
Y1248696D1*
X2662817Y1256153D1*
X2594835D1*
Y1277657D1*
X2509085Y1277649D1*
X2435566Y1277653D1*
X2604918Y1108294D1*
X2720267Y1108298D1*
Y1120929D1*
X2718193Y1120531D1*
X2713091Y1120130D1*
X2706201D1*
X2870558Y2125164D2*
X2879097Y2121836D1*
X2886366Y2116269D1*
X2891802Y2108901D1*
X2894977Y2100313D1*
X2895717Y2093406D1*
Y2090265D1*
X2908071Y2090264D1*
X2917157Y2089096D1*
X2925653Y2085669D1*
X2933012Y2080197D1*
X3033579Y1979640D1*
X3184307Y1979634D1*
X3184301Y2003099D1*
X3303097D1*
Y1884303D1*
X3287048D1*
X3292334Y1877805D1*
X3296970Y1869982D1*
X3300357Y1861543D1*
X3302417Y1852685D1*
X3303100Y1843701D1*
X3302391Y1834551D1*
X3300307Y1825700D1*
X3296896Y1817270D1*
X3292238Y1809460D1*
X3286442Y1802452D1*
X3279644Y1796412D1*
X3272004Y1791479D1*
X3263701Y1787771D1*
X3254929Y1785374D1*
X3245894Y1784343D1*
X3236807Y1784705D1*
X3235735Y1784914D1*
X3104635Y1653816D1*
X3104634Y1634808D1*
X3106330Y1632542D1*
X3110863Y1624428D1*
X3113669Y1615568D1*
X3114079Y1611641D1*
X3133580Y1592139D1*
X3190073Y1592136D1*
X3189581Y1594078D1*
X3188995Y1597078D1*
X3188576Y1600105D1*
X3188324Y1603151D1*
X3188240Y1606206D1*
X3188324Y1609261D1*
X3188577Y1612307D1*
X3188997Y1615335D1*
X3189583Y1618334D1*
X3190334Y1621297D1*
X3191247Y1624214D1*
X3192319Y1627076D1*
X3193547Y1629875D1*
X3194927Y1632602D1*
X3196455Y1635249D1*
X3198127Y1637807D1*
X3199938Y1640270D1*
X3201881Y1642629D1*
X3203951Y1644877D1*
X3206142Y1647008D1*
X3208447Y1649015D1*
X3210859Y1650892D1*
X3213371Y1652634D1*
X3215975Y1654234D1*
X3218663Y1655688D1*
X3221427Y1656993D1*
X3224259Y1658142D1*
X3227150Y1659135D1*
X3230091Y1659966D1*
X3233074Y1660634D1*
X3236088Y1661137D1*
X3239126Y1661473D1*
X3242178Y1661641D1*
X3245234Y1661640D1*
X3248286Y1661472D1*
X3251324Y1661135D1*
X3254338Y1660632D1*
X3257321Y1659963D1*
X3260262Y1659131D1*
X3263152Y1658139D1*
X3265984Y1656988D1*
X3268748Y1655684D1*
X3271436Y1654229D1*
X3274040Y1652628D1*
X3276551Y1650886D1*
X3278963Y1649009D1*
X3281267Y1647001D1*
X3283458Y1644870D1*
X3285528Y1642621D1*
X3287471Y1640261D1*
X3289280Y1637798D1*
X3290952Y1635240D1*
X3292480Y1632593D1*
X3293696Y1630188D1*
X3294927Y1632602D1*
X3296455Y1635249D1*
X3298127Y1637807D1*
X3299938Y1640270D1*
X3301881Y1642629D1*
X3303951Y1644877D1*
X3306142Y1647008D1*
X3308447Y1649015D1*
X3310859Y1650892D1*
X3313371Y1652634D1*
X3315975Y1654234D1*
X3318663Y1655688D1*
X3321427Y1656993D1*
X3324259Y1658142D1*
X3327150Y1659135D1*
X3330091Y1659966D1*
X3333074Y1660634D1*
X3336088Y1661137D1*
X3339126Y1661473D1*
X3342178Y1661641D1*
X3345234Y1661640D1*
X3348286Y1661472D1*
X3351324Y1661135D1*
X3354338Y1660632D1*
X3357321Y1659963D1*
X3360262Y1659131D1*
X3363152Y1658139D1*
X3365984Y1656988D1*
X3368748Y1655684D1*
X3371436Y1654229D1*
X3374040Y1652628D1*
X3376551Y1650886D1*
X3378963Y1649009D1*
X3381267Y1647001D1*
X3383458Y1644870D1*
X3385528Y1642621D1*
X3387471Y1640261D1*
X3389280Y1637798D1*
X3390952Y1635240D1*
X3392480Y1632593D1*
X3393860Y1629865D1*
X3395087Y1627066D1*
X3396158Y1624204D1*
X3397070Y1621287D1*
X3397820Y1618324D1*
X3398406Y1615324D1*
X3398826Y1612297D1*
X3399078Y1609251D1*
X3399162Y1606201D1*
X3399077Y1603140D1*
X3398824Y1600094D1*
X3398404Y1597067D1*
X3397818Y1594067D1*
X3397068Y1591105D1*
X3396155Y1588188D1*
X3395083Y1585325D1*
X3393855Y1582527D1*
X3392475Y1579800D1*
X3390946Y1577153D1*
X3389274Y1574594D1*
X3387464Y1572132D1*
X3385521Y1569773D1*
X3383450Y1567524D1*
X3381259Y1565393D1*
X3378954Y1563386D1*
X3376542Y1561509D1*
X3374031Y1559768D1*
X3371427Y1558168D1*
X3368738Y1556713D1*
X3367559Y1556136D1*
X3374048Y1552622D1*
X3381275Y1546994D1*
X3387477Y1540253D1*
X3392485Y1532583D1*
X3396162Y1524194D1*
X3398408Y1515314D1*
X3399162Y1506201D1*
X3398403Y1497056D1*
X3396312Y1488810D1*
X3403245Y1484578D1*
X3406610Y1481610D1*
X3456596Y1431624D1*
X3458975Y1429001D1*
X3463837Y1421236D1*
X3466579Y1412495D1*
X3467134Y1406201D1*
Y981222D1*
X3466416Y974051D1*
X3463463Y965379D1*
X3458414Y957735D1*
X3456610Y955792D1*
X3306625Y805808D1*
X3301046Y801245D1*
X3292826Y797200D1*
X3283850Y795365D1*
X3281201Y795267D1*
X2718721D1*
X2711552Y795986D1*
X2702879Y798938D1*
X2695235Y803988D1*
X2693292Y805792D1*
X2630805Y868279D1*
X2626245Y873855D1*
X2622200Y882075D1*
X2620365Y891051D1*
X2620267Y893701D1*
Y1006178D1*
X2620440Y1009718D1*
X2622491Y1018647D1*
X2626734Y1026766D1*
X2630792Y1031610D1*
X2635603Y1036428D1*
X2590063D1*
X2582891Y1037146D1*
X2574219Y1040098D1*
X2566574Y1045148D1*
X2564632Y1046952D1*
X2406249Y1205328D1*
Y1119834D1*
X2384745D1*
X2384752Y1067570D1*
X2406248Y1067567D1*
Y944834D1*
X2181153D1*
Y1067567D1*
X2312893D1*
X2312887Y1119834D1*
X2181154D1*
Y1155440D1*
X2176245Y1161355D1*
X2172200Y1169576D1*
X2170365Y1178551D1*
X2170267Y1181201D1*
Y1778825D1*
X2130806Y1818278D1*
X2128427Y1820901D1*
X2123564Y1828665D1*
X2120823Y1837407D1*
X2120267Y1843701D1*
Y2106184D1*
X2120986Y2113350D1*
X2123938Y2122023D1*
X2124790Y2123652D1*
X2125173Y2124355D1*
X1918385Y1917567D1*
X2043748D1*
Y1794834D1*
X1912009D1*
X1912016Y1792568D1*
X2043748Y1792567D1*
Y1669834D1*
X1892129D1*
X1892134Y1618215D1*
X1956258Y1618217D1*
X1956252Y1635776D1*
X2071111D1*
Y1528791D1*
X1956252D1*
Y1546347D1*
X1756154Y1546350D1*
X1756150Y1528791D1*
X1641291D1*
Y1635776D1*
X1756150D1*
Y1618219D1*
X1820262Y1618217D1*
X1820267Y1669827D1*
X1818653Y1669834D1*
Y1792567D1*
X1840157D1*
X1840151Y1794834D1*
X1818653D1*
Y1917567D1*
X1840157D1*
X1840149Y1926065D1*
X1840548Y1931423D1*
X1843054Y1940235D1*
X1847706Y1948127D1*
X1850674Y1951491D1*
X2243278Y2344096D1*
X2248855Y2348657D1*
X2257075Y2352702D1*
X2266051Y2354536D1*
X2268701Y2354634D1*
X2453813D1*
X2470266Y2371084D1*
X2470274Y2375740D1*
X2150740D1*
Y2486662D1*
X2961662D1*
Y2375740D1*
X2742132D1*
X2742134Y2356201D1*
X2740966Y2347114D1*
X2737539Y2338618D1*
X2732067Y2331260D1*
X2601941Y2201123D1*
X2506610Y2105792D1*
X2499359Y2100193D1*
X2490927Y2096609D1*
X2481855Y2095274D1*
X2446089Y2095267D1*
X2406253Y2055436D1*
X2406248Y2031962D1*
X2420689Y2017530D1*
X2471361Y2017524D1*
X2469010Y2021301D1*
X2465322Y2029832D1*
X2463427Y2038931D1*
X2463402Y2048225D1*
X2465248Y2057334D1*
X2468890Y2065884D1*
X2474179Y2073527D1*
X2480898Y2079948D1*
X2488772Y2084885D1*
X2497479Y2088137D1*
X2506662Y2089569D1*
X2515945Y2089123D1*
X2524948Y2086818D1*
X2533304Y2082747D1*
X2537353Y2079630D1*
X2666693Y2079634D1*
X2666685Y2093383D1*
X2666914Y2097265D1*
X2669267Y2106123D1*
X2670267Y2113025D1*
Y2161298D1*
X2670666Y2166659D1*
X2673172Y2175471D1*
X2677824Y2183363D1*
X2680792Y2186728D1*
X2706154Y2212084D1*
Y2280067D1*
X2931249D1*
Y2157334D1*
X2753039D1*
X2742128Y2146429D1*
X2742134Y2125235D1*
X2744209Y2125630D1*
X2749311Y2126032D1*
X2763091D1*
X2772156Y2124747D1*
X2780514Y2120988D1*
X2785456Y2122944D1*
X2794209Y2125630D1*
X2799311Y2126032D1*
X2813070D1*
X2820567Y2125164D1*
X2829104Y2121830D1*
X2835456Y2122944D1*
X2844209Y2125630D1*
X2849311Y2126032D1*
X2863070D1*
X2870558Y2125164D1*
X1870985Y658223D2*
X1873938Y666905D1*
X1878988Y674549D1*
X1880792Y676491D1*
X1894835Y690527D1*
Y770261D1*
X1817567Y770273D1*
Y690538D1*
X1831610Y676491D1*
X1837209Y669240D1*
X1840793Y660809D1*
X1842127Y651737D1*
X1842128Y586662D1*
X1870270D1*
X1870267Y651060D1*
X1870985Y658223D1*
X3505207Y2505201D2*
X432193D1*
X432201Y2407449D1*
Y432195D1*
X695271Y432201D1*
X3505209D1*
X3505201Y529952D1*
Y2505206D1*
X1950765Y586636D2*
D15*
X2061636Y475765D1*
Y586636D2*
X2006201Y531201D1*
X2050765Y586636D2*
X2161636Y475765D1*
X2106201Y531201D2*
X2050765Y475765D1*
X2043753Y1913634D2*
X1928885Y1798767D1*
X2043753D2*
X1928885Y1913634D1*
X2931253Y2276134D2*
X2816385Y2161267D1*
X2931253D2*
X2816385Y2276134D1*
X2598767Y1481253D2*
X2713634Y1366385D1*
Y1481253D2*
X2598767Y1366385D1*
X3282892Y1645392D2*
X3243701Y1606201D1*
X3204509Y1645392D1*
X3382892D2*
X3343701Y1606201D1*
X3382892Y1567009D2*
X3304509Y1645392D1*
X2296016Y1063634D2*
X2181149Y948767D1*
X2296016D2*
X2181149Y1063634D1*
X2291385Y1836267D2*
X2406252Y1951134D1*
X2291385D2*
X2406252Y1836267D1*
X2043752Y1788634D2*
X1928885Y1673767D1*
X2043752D2*
X1928885Y1788634D1*
X2856201Y958071D2*
X2893804Y920467D1*
Y995674D2*
X2856201Y958071D1*
Y1845571D2*
X2893804Y1807968D1*
D16*
X2006201Y531201D3*
X1806201D3*
X1706201D3*
X1606201D3*
X1506201D3*
X2906201D3*
X2806201D3*
X2706201D3*
X2606201D3*
X2506201D3*
X2406201D3*
X2044201Y2431201D3*
X1944201D3*
X1844201D3*
X1744201D3*
X1644201D3*
X1544201D3*
X1444201D3*
X1343201D3*
X1244201D3*
X1144201D3*
X2906201D3*
X2806201D3*
X2706201D3*
X2606201D3*
X2506201D3*
X2406201D3*
X2306201D3*
X2206201D3*
X1906201Y531201D3*
X2206201D3*
X2106201D3*
D17*
X1986319Y1856201D3*
X1876083D3*
X2873819Y2218701D3*
X2763583D3*
D18*
X2656201Y1423819D3*
Y1313583D3*
D17*
X2348819Y1181201D3*
X2238583D3*
Y2043701D3*
X2348819D3*
D16*
X3243701Y1306201D3*
D19*
X3343701D3*
X3243701Y1406201D3*
X3343701D3*
X3243701Y1506201D3*
X3343701D3*
X3243701Y1606201D3*
X3343701D3*
D20*
X3243700Y1031201D3*
D21*
X3243702Y931201D3*
D20*
X3243699Y1943701D3*
D21*
X3243702Y1843701D3*
D17*
X2348819Y1006201D3*
X2238583D3*
Y1893701D3*
X2348819D3*
X1986319Y1731201D3*
X1876083D3*
D18*
X1756201Y811319D3*
Y701083D3*
X1956201Y811319D3*
Y701083D3*
D22*
X1698720Y1582283D3*
X2013681D3*
X1698720Y1405118D3*
X2013681D3*
D44*
X2706201Y958071D3*
X2756201D3*
X2806201D3*
X2856201D3*
D47*
Y1179331D3*
X2806201D3*
X2756201D3*
X2706201D3*
D44*
Y1845571D3*
X2756201D3*
X2806201D3*
X2856201D3*
D47*
Y2066831D3*
X2806201D3*
X2756201D3*
X2706201D3*
G04 Top Clear*
%LPC*%
D25*
X3031201Y931201D3*
Y731201D3*
X2256201Y1731201D3*
X2093701D3*
X3068701Y1506201D3*
X2881201D3*
X3068701Y1606201D3*
X2818701D3*
X2093701Y1331201D3*
X2256201D3*
X2509112Y1828290D3*
Y2043701D3*
D26*
X2006201Y531201D3*
X1806201D3*
X1706201D3*
X1606201D3*
X1506201D3*
X2906201D3*
X2806201D3*
X2706201D3*
X2606201D3*
X2506201D3*
X2406201D3*
X2044201Y2431201D3*
X1944201D3*
X1844201D3*
X1744201D3*
X1644201D3*
X1544201D3*
X1444201D3*
X1343201D3*
X1244201D3*
X1144201D3*
X2906201D3*
X2806201D3*
X2706201D3*
X2606201D3*
X2506201D3*
X2406201D3*
X2306201D3*
X2206201D3*
X1906201Y531201D3*
X2206201D3*
X2106201D3*
X3243701Y1306201D3*
X3343701D3*
X3243701Y1406201D3*
X3343701D3*
X3243701Y1506201D3*
X3343701D3*
X3243701Y1606201D3*
X3343701D3*
X3243700Y1031201D3*
X3243702Y931201D3*
X3243699Y1943701D3*
X3243702Y1843701D3*
M02*
